<svg xmlns="http://www.w3.org/2000/svg" viewBox="0 0 900 420" role="img" aria-label="Desserts in David's shop picture graph">
  <rect width="900" height="420" fill="#ffffff"/>
  <text x="450" y="44" text-anchor="middle" font-family="Arial, sans-serif" font-size="30" font-weight="700">Desserts in David's Shop</text>
  <g font-family="Arial, sans-serif" font-size="22" font-weight="700">
    <rect x="60" y="75" width="780" height="280" fill="#ffffff" stroke="#1f2937" stroke-width="4"/>
    <line x1="210" y1="75" x2="210" y2="355" stroke="#1f2937" stroke-width="4"/>
    <line x1="60" y1="145" x2="840" y2="145" stroke="#1f2937" stroke-width="3"/>
    <line x1="60" y1="215" x2="840" y2="215" stroke="#1f2937" stroke-width="3"/>
    <line x1="60" y1="285" x2="840" y2="285" stroke="#1f2937" stroke-width="3"/>
    <text x="92" y="120">Cupcake</text>
    <text x="115" y="190">Cake</text>
    <text x="88" y="260">Macaron</text>
    <text x="105" y="330">Cookie</text>
  </g>
  <g>
    <g fill="#67e8f9" stroke="#1f2937" stroke-width="2">
      <circle cx="250" cy="110" r="16"/><circle cx="315" cy="110" r="16"/><circle cx="380" cy="110" r="16"/><circle cx="445" cy="110" r="16"/><circle cx="510" cy="110" r="16"/><circle cx="575" cy="110" r="16"/><circle cx="640" cy="110" r="16"/><circle cx="705" cy="110" r="16"/><circle cx="770" cy="110" r="16"/>
    </g>
    <g fill="#f59e0b" stroke="#1f2937" stroke-width="2">
      <rect x="235" y="165" width="34" height="28"/><rect x="300" y="165" width="34" height="28"/><rect x="365" y="165" width="34" height="28"/><rect x="430" y="165" width="34" height="28"/><rect x="495" y="165" width="34" height="28"/><rect x="560" y="165" width="34" height="28"/>
    </g>
    <g fill="#86efac" stroke="#1f2937" stroke-width="2">
      <ellipse cx="250" cy="250" rx="22" ry="12"/><ellipse cx="315" cy="250" rx="22" ry="12"/><ellipse cx="380" cy="250" rx="22" ry="12"/><ellipse cx="445" cy="250" rx="22" ry="12"/><ellipse cx="510" cy="250" rx="22" ry="12"/><ellipse cx="575" cy="250" rx="22" ry="12"/><ellipse cx="640" cy="250" rx="22" ry="12"/>
    </g>
    <g fill="#d97706" stroke="#1f2937" stroke-width="2">
      <circle cx="250" cy="320" r="15"/><circle cx="315" cy="320" r="15"/><circle cx="380" cy="320" r="15"/><circle cx="445" cy="320" r="15"/><circle cx="510" cy="320" r="15"/><circle cx="575" cy="320" r="15"/><circle cx="640" cy="320" r="15"/><circle cx="705" cy="320" r="15"/>
    </g>
  </g>
  <text x="450" y="395" text-anchor="middle" font-family="Arial, sans-serif" font-size="16" fill="#6b7280">Placeholder figure. Replace with final supplied artwork using the same filename.</text>
</svg>
